<svg width="1200" height="173" viewBox="0 0 1200 173" fill="none" xmlns="http://www.w3.org/2000/svg">
<path d="M1170.61 130.109V117.903H1164.49V115.137H1179.47V117.903H1173.37V130.109H1170.61Z" fill="black"/>
<path d="M1183.11 130.109V115.137H1186.13L1191.55 121.603L1196.97 115.137H1200V130.109H1197.23V119.131L1191.55 125.891L1185.86 119.148V130.109H1183.11Z" fill="black"/>
<path d="M227.361 129.539V57.8317H263.063V43.3434H177.092V57.8317H212.915V129.539H227.361ZM386.136 129.539V115.05H321.656V93.7413H373.592V79.132H321.656V57.823H386.136V43.3347H307.211V129.53H386.136V129.539ZM507.056 99.3776L500.279 99.3949L522.815 126.193V129.547H506.693L481.555 99.4295L451.532 99.49V129.539H437.199V43.4644H507.048C509.892 43.4384 512.684 44.1992 515.104 45.6774C517.508 47.1297 519.513 49.1439 520.957 51.5471C522.426 53.9849 523.196 56.7857 523.161 59.6298V83.3332C523.179 86.16 522.409 88.9349 520.957 91.3554C519.539 93.7759 517.525 95.7987 515.104 97.2251C512.667 98.6688 509.874 99.4122 507.048 99.3776H507.056ZM506.46 84.8893C507.056 84.9066 507.635 84.6904 508.068 84.2928C508.509 83.8951 508.742 83.3246 508.725 82.7368V59.9928C508.725 59.4223 508.483 58.8863 508.068 58.4973C507.644 58.0651 507.065 57.8231 506.46 57.8403H453.685C453.114 57.8403 452.578 58.0824 452.189 58.4973C451.774 58.8863 451.532 59.4223 451.532 59.9928V82.7368C451.515 83.3246 451.748 83.8951 452.189 84.2928C452.587 84.6732 453.123 84.8893 453.685 84.8893H506.46ZM660.213 59.5087V129.547H645.767V99.9741H588.575V129.547H574.242V59.5174C574.216 56.6647 574.96 53.8465 576.395 51.3742C577.795 48.9364 579.809 46.9136 582.247 45.5045C584.711 44.0695 587.52 43.3174 590.364 43.3434H644.09C646.926 43.3174 649.709 44.0609 652.147 45.4959C654.568 46.9222 656.582 48.9451 658 51.3655C659.469 53.8292 660.23 56.6387 660.204 59.5087H660.213ZM645.759 59.9842C645.776 59.3964 645.543 58.8258 645.102 58.4282C644.661 58.0305 644.082 57.8144 643.494 57.8317H590.727C590.174 57.8317 589.638 58.0478 589.232 58.4282C588.791 58.8258 588.558 59.3964 588.575 59.9842V85.6068H645.767V59.9842H645.759ZM729.067 129.539V93.7413H788.291V129.539H802.624V43.3434H788.291V79.1406H729.067V43.3434H714.743V129.539H729.075H729.067ZM870.492 129.539V43.3434H856.28V129.539H870.492ZM972.006 129.539L1021.8 43.3434H1005.2L965.315 112.664L925.558 43.3434H908.84L958.624 129.539H971.997H972.006ZM1139.17 129.539V115.05H1074.69V93.7413H1126.63V79.132H1074.69V57.823H1139.17V43.3347H1060.24V129.53H1139.17V129.539Z" fill="black"/>
<path d="M59.0339 86.1952H118.068L85.5037 172.39H26.4697L59.0339 86.1952H0L32.5642 0H91.5981L59.0339 86.1952Z" fill="url(#paint0_linear_607_1983)"/>
<defs>
<linearGradient id="paint0_linear_607_1983" x1="-1.47813e-07" y1="44.6461" x2="118.068" y2="127.744" gradientUnits="userSpaceOnUse">
<stop stop-color="#1F55D1"/>
<stop offset="1" stop-color="#0BBE9E"/>
</linearGradient>
</defs>
</svg>
